<svg width="14" height="15" viewBox="0 0 14 15" fill="none" xmlns="http://www.w3.org/2000/svg">
<g clip-path="url(#clip0_281_208)">
<path d="M11.0098 9.19956C11.0846 9.24441 11.1777 9.29674 11.2817 9.35586C11.8689 9.66015 12.4167 10.0353 12.9126 10.473C13.2492 10.7705 13.4725 11.1753 13.5445 11.6187C13.5614 11.8809 13.5157 12.1434 13.4111 12.3844C13.3065 12.6255 13.1461 12.8382 12.9431 13.005C12.5793 13.3968 12.1417 13.7129 11.6554 13.9353C11.1692 14.1577 10.6438 14.2819 10.1094 14.3009H4.42437C3.89002 14.2819 3.36466 14.1577 2.8784 13.9353C2.39215 13.7129 1.95455 13.3968 1.59067 13.005C1.38764 12.8382 1.22722 12.6255 1.12264 12.3845C1.01807 12.1434 0.972357 11.8809 0.989277 11.6187C1.06129 11.1753 1.28459 10.7705 1.62125 10.473C2.11715 10.0353 2.66488 9.66015 3.25216 9.35586C3.35681 9.29674 3.44991 9.24441 3.52398 9.19956C4.65761 8.52977 5.9502 8.17645 7.26691 8.17645C8.58362 8.17645 9.87621 8.52977 11.0098 9.19956Z" fill="#7E6969"/>
<path d="M3.88232 3.82506C3.88232 3.15561 4.08084 2.50119 4.45277 1.94456C4.8247 1.38793 5.35333 0.95409 5.97182 0.697901C6.59032 0.441713 7.27089 0.374683 7.92748 0.505286C8.58407 0.63589 9.18718 0.958262 9.66056 1.43164C10.1339 1.90501 10.4563 2.50813 10.5869 3.16471C10.7175 3.8213 10.6505 4.50188 10.3943 5.12037C10.1381 5.73886 9.70426 6.2675 9.14763 6.63942C8.591 7.01135 7.93659 7.20987 7.26713 7.20987C6.36943 7.20987 5.50849 6.85325 4.87371 6.21848C4.23894 5.5837 3.88232 4.72277 3.88232 3.82506Z" fill="#7E6969"/>
</g>
<defs>
<clipPath id="clip0_281_208">
<rect width="12.5716" height="13.8607" fill="white" transform="translate(0.980957 0.440247)"/>
</clipPath>
</defs>
</svg>
